<?xml version="1.0" encoding="UTF-8" standalone="no"?>
<!DOCTYPE svg PUBLIC "-//W3C//DTD SVG 1.1//EN"
 "http://www.w3.org/Graphics/SVG/1.1/DTD/svg11.dtd">
<!-- Generated by graphviz version 2.38.0 (20140413.2041)
 -->
<!-- Title: %3 Pages: 1 -->
<svg width="789pt" height="254pt"
 viewBox="0.00 0.00 789.00 254.00" xmlns="http://www.w3.org/2000/svg" xmlns:xlink="http://www.w3.org/1999/xlink">
<g id="graph0" class="graph" transform="scale(1 1) rotate(0) translate(4 250)">
<title>%3</title>
<polygon fill="white" stroke="none" points="-4,4 -4,-250 785,-250 785,4 -4,4"/>
<!-- _strlen -->
<g id="node1" class="node"><title>_strlen</title>
<polygon fill="none" stroke="black" points="0,-0.5 0,-47.5 152,-47.5 152,-0.5 0,-0.5"/>
<text text-anchor="middle" x="76" y="-32.3" font-family="Times,serif" font-size="14.00">_strlenPE: 0,TC: &#45;1</text>
<polyline fill="none" stroke="black" points="0,-24.5 152,-24.5 "/>
<text text-anchor="middle" x="76" y="-8.8" font-family="Times,serif" font-size="14.00">Cycle: 4632</text>
</g>
<!-- _a -->
<g id="node2" class="node"><title>_a</title>
<polygon fill="none" stroke="black" points="170,-0.5 170,-47.5 288,-47.5 288,-0.5 170,-0.5"/>
<text text-anchor="middle" x="229" y="-32.3" font-family="Times,serif" font-size="14.00">_aPE: 0,TC: &#45;1</text>
<polyline fill="none" stroke="black" points="170,-24.5 288,-24.5 "/>
<text text-anchor="middle" x="229" y="-8.8" font-family="Times,serif" font-size="14.00">Cycle: 30</text>
</g>
<!-- _strcpy -->
<g id="node3" class="node"><title>_strcpy</title>
<polygon fill="none" stroke="black" points="306.5,-0.5 306.5,-47.5 461.5,-47.5 461.5,-0.5 306.5,-0.5"/>
<text text-anchor="middle" x="384" y="-32.3" font-family="Times,serif" font-size="14.00">_strcpyPE: 0,TC: &#45;1</text>
<polyline fill="none" stroke="black" points="306.5,-24.5 461.5,-24.5 "/>
<text text-anchor="middle" x="384" y="-8.8" font-family="Times,serif" font-size="14.00">Cycle: 819</text>
</g>
<!-- _b -->
<g id="node4" class="node"><title>_b</title>
<polygon fill="none" stroke="black" points="479.5,-0.5 479.5,-47.5 598.5,-47.5 598.5,-0.5 479.5,-0.5"/>
<text text-anchor="middle" x="539" y="-32.3" font-family="Times,serif" font-size="14.00">_bPE: 0,TC: &#45;1</text>
<polyline fill="none" stroke="black" points="479.5,-24.5 598.5,-24.5 "/>
<text text-anchor="middle" x="539" y="-8.8" font-family="Times,serif" font-size="14.00">Cycle: 22</text>
</g>
<!-- _myputc -->
<g id="node5" class="node"><title>_myputc</title>
<polygon fill="none" stroke="black" points="617,-0.5 617,-47.5 781,-47.5 781,-0.5 617,-0.5"/>
<text text-anchor="middle" x="699" y="-32.3" font-family="Times,serif" font-size="14.00">_myputcPE: 0,TC: &#45;1</text>
<polyline fill="none" stroke="black" points="617,-24.5 781,-24.5 "/>
<text text-anchor="middle" x="699" y="-8.8" font-family="Times,serif" font-size="14.00">Cycle: 528</text>
</g>
<!-- _CallFuncs -->
<g id="node6" class="node"><title>_CallFuncs</title>
<polygon fill="none" stroke="black" points="293,-99.5 293,-146.5 475,-146.5 475,-99.5 293,-99.5"/>
<text text-anchor="middle" x="384" y="-131.3" font-family="Times,serif" font-size="14.00">_CallFuncsPE: 0,TC: &#45;1</text>
<polyline fill="none" stroke="black" points="293,-123.5 475,-123.5 "/>
<text text-anchor="middle" x="384" y="-107.8" font-family="Times,serif" font-size="14.00">Cycle: 1109</text>
</g>
<!-- _CallFuncs&#45;&gt;_strlen -->
<g id="edge1" class="edge"><title>_CallFuncs&#45;&gt;_strlen</title>
<path fill="none" stroke="blue" d="M292.888,-100.072C270.864,-94.3008 247.486,-87.7784 226,-81 198.022,-72.1735 167.619,-61.1069 141.545,-51.1473"/>
<polygon fill="blue" stroke="blue" points="142.737,-47.856 132.147,-47.5343 140.225,-54.3898 142.737,-47.856"/>
<text text-anchor="middle" x="260" y="-69.8" font-family="Times,serif" font-size="14.00">count: 96</text>
</g>
<!-- _CallFuncs&#45;&gt;_a -->
<g id="edge2" class="edge"><title>_CallFuncs&#45;&gt;_a</title>
<path fill="none" stroke="blue" d="M347.659,-99.2578C325.602,-85.4542 297.278,-67.7291 273.835,-53.0583"/>
<polygon fill="blue" stroke="blue" points="275.447,-49.9377 265.113,-47.5997 271.733,-55.8716 275.447,-49.9377"/>
<text text-anchor="middle" x="345.5" y="-69.8" font-family="Times,serif" font-size="14.00">count: 4</text>
</g>
<!-- _CallFuncs&#45;&gt;_strcpy -->
<g id="edge3" class="edge"><title>_CallFuncs&#45;&gt;_strcpy</title>
<path fill="none" stroke="blue" d="M384,-99.0124C384,-86.8114 384,-71.5991 384,-58.1448"/>
<polygon fill="blue" stroke="blue" points="387.5,-57.8226 384,-47.8226 380.5,-57.8227 387.5,-57.8226"/>
<text text-anchor="middle" x="413.5" y="-69.8" font-family="Times,serif" font-size="14.00">count: 8</text>
</g>
<!-- _CallFuncs&#45;&gt;_b -->
<g id="edge4" class="edge"><title>_CallFuncs&#45;&gt;_b</title>
<path fill="none" stroke="blue" d="M420.341,-99.2578C442.398,-85.4542 470.722,-67.7291 494.165,-53.0583"/>
<polygon fill="blue" stroke="blue" points="496.267,-55.8716 502.887,-47.5997 492.553,-49.9377 496.267,-55.8716"/>
<text text-anchor="middle" x="500.5" y="-69.8" font-family="Times,serif" font-size="14.00">count: 4</text>
</g>
<!-- _CallFuncs&#45;&gt;_myputc -->
<g id="edge5" class="edge"><title>_CallFuncs&#45;&gt;_myputc</title>
<path fill="none" stroke="blue" d="M469.926,-99.4718C490.955,-93.6949 513.348,-87.3207 534,-81 564.277,-71.7336 597.378,-60.6832 625.933,-50.8567"/>
<polygon fill="blue" stroke="blue" points="627.122,-54.1487 635.432,-47.5755 624.837,-47.5324 627.122,-54.1487"/>
<text text-anchor="middle" x="614" y="-69.8" font-family="Times,serif" font-size="14.00">count: 88</text>
</g>
<!-- _main -->
<g id="node7" class="node"><title>_main</title>
<polygon fill="none" stroke="black" points="311.5,-198.5 311.5,-245.5 456.5,-245.5 456.5,-198.5 311.5,-198.5"/>
<text text-anchor="middle" x="384" y="-230.3" font-family="Times,serif" font-size="14.00">_mainPE: 0,TC: &#45;1</text>
<polyline fill="none" stroke="black" points="311.5,-222.5 456.5,-222.5 "/>
<text text-anchor="middle" x="384" y="-206.8" font-family="Times,serif" font-size="14.00">Cycle: 615</text>
</g>
<!-- _main&#45;&gt;_CallFuncs -->
<g id="edge6" class="edge"><title>_main&#45;&gt;_CallFuncs</title>
<path fill="none" stroke="blue" d="M384,-198.012C384,-185.811 384,-170.599 384,-157.145"/>
<polygon fill="blue" stroke="blue" points="387.5,-156.823 384,-146.823 380.5,-156.823 387.5,-156.823"/>
<text text-anchor="middle" x="413.5" y="-168.8" font-family="Times,serif" font-size="14.00">count: 1</text>
</g>
</g>
</svg>
